<?xml version="1.0" standalone="no"?>
<!DOCTYPE svg PUBLIC "-//W3C//DTD SVG 20010904//EN"
 "http://www.w3.org/TR/2001/REC-SVG-20010904/DTD/svg10.dtd">
<svg version="1.0" xmlns="http://www.w3.org/2000/svg"
 width="700.000000pt" height="700.000000pt" viewBox="0 0 700.000000 700.000000"
 preserveAspectRatio="xMidYMid meet">
<metadata>
Created by potrace 1.14, written by Peter Selinger 2001-2017
</metadata>
<g transform="translate(0.000000,700.000000) scale(0.100000,-0.100000)"
fill="#000000" stroke="none">
<path d="M3427 6764 c-1 -1 -54 -4 -117 -8 -63 -3 -128 -8 -145 -10 -16 -2
-55 -7 -85 -10 -87 -9 -261 -43 -392 -76 -465 -118 -902 -341 -1273 -648 -83
-69 -353 -334 -400 -392 -11 -14 -39 -48 -61 -75 -168 -204 -346 -502 -463
-777 -60 -142 -145 -401 -166 -508 -2 -8 -12 -60 -24 -115 -11 -55 -23 -120
-26 -145 -3 -25 -7 -56 -10 -70 -2 -14 -7 -43 -10 -65 -2 -22 -8 -62 -11 -90
-16 -114 -8 -539 12 -639 2 -10 6 -44 10 -75 5 -46 38 -229 58 -318 21 -99
106 -372 135 -438 5 -11 28 -65 51 -120 151 -353 380 -687 665 -970 103 -102
136 -131 210 -181 259 -176 544 -246 860 -210 164 19 146 26 242 -94 80 -100
152 -170 244 -239 154 -116 393 -216 574 -238 22 -3 47 -8 55 -12 22 -10 333
-4 410 7 63 10 109 16 208 27 26 3 58 8 72 10 14 3 41 7 60 10 148 24 391 93
570 162 574 220 1034 572 1443 1104 128 165 301 474 394 704 64 156 148 419
169 529 2 11 10 55 19 96 17 87 21 114 31 195 3 33 8 69 10 80 22 115 21 596
-2 709 -2 12 -6 39 -9 61 -40 362 -199 829 -406 1195 -58 102 -198 305 -286
415 -90 113 -333 363 -437 451 -462 385 -992 627 -1597 728 -15 2 -53 7 -85
11 -33 4 -70 9 -84 11 -54 8 -406 24 -413 18z m238 -198 c77 -3 149 -7 160 -9
11 -3 50 -8 87 -11 53 -6 237 -41 318 -60 334 -82 650 -220 936 -408 116 -76
305 -219 360 -273 12 -11 50 -47 85 -81 165 -157 321 -342 448 -529 159 -235
284 -489 371 -755 27 -82 83 -315 95 -394 3 -21 7 -48 10 -60 19 -88 30 -257
30 -466 0 -212 -7 -323 -31 -470 -20 -130 -24 -148 -35 -200 -6 -25 -12 -52
-14 -60 -53 -252 -190 -590 -346 -856 -155 -266 -405 -565 -624 -749 -33 -27
-66 -56 -74 -63 -26 -24 -166 -129 -241 -179 -152 -102 -391 -228 -553 -292
-216 -85 -490 -160 -677 -186 -25 -3 -52 -8 -60 -10 -8 -2 -42 -6 -75 -10 -33
-3 -80 -8 -105 -11 -64 -8 -296 -7 -350 0 -137 20 -214 41 -323 88 -72 31
-177 90 -199 111 -7 7 -21 18 -31 23 -36 20 -163 152 -220 228 -70 96 -137
231 -171 348 -79 272 -45 580 90 825 110 199 285 368 481 467 130 65 252 96
428 110 33 3 94 8 135 12 449 39 780 396 784 844 0 63 -3 134 -7 158 -48 298
-271 558 -567 663 -96 34 -122 39 -245 45 -124 6 -250 -15 -354 -58 -101 -42
-138 -67 -156 -105 -14 -28 -14 -36 -1 -67 27 -65 79 -74 176 -29 478 221 988
-118 965 -642 -6 -149 -60 -281 -159 -387 -251 -273 -591 -314 -896 -107 -186
125 -283 323 -274 558 3 64 13 110 49 218 25 75 45 147 45 160 0 34 -27 70
-62 82 -76 27 -151 -74 -204 -274 -20 -78 -23 -108 -19 -220 4 -141 5 -148 36
-245 57 -178 185 -351 332 -450 20 -14 37 -27 37 -30 0 -3 -39 -24 -87 -47
-226 -109 -412 -265 -535 -448 -78 -118 -176 -339 -194 -441 -3 -16 -10 -49
-16 -74 -16 -71 -18 -305 -3 -395 18 -108 29 -152 65 -266 11 -34 19 -64 17
-66 -7 -7 -124 -17 -192 -17 -288 1 -539 104 -767 314 -53 48 -214 228 -256
285 -4 6 -29 38 -56 73 -157 205 -330 529 -421 790 -37 106 -103 336 -111 392
-3 19 -9 51 -14 70 -5 19 -11 55 -14 80 -3 25 -8 55 -10 68 -33 161 -38 552
-10 772 2 19 6 55 9 78 9 80 57 295 92 417 125 433 346 840 632 1165 119 135
145 162 256 263 354 320 748 540 1214 677 41 12 81 23 90 25 9 2 34 8 56 14
64 17 245 50 306 56 31 3 67 8 80 10 13 3 87 8 164 11 77 4 141 8 143 9 2 2
11 1 20 -1 9 -1 80 -5 157 -8z"/>
<path d="M3839 5932 c-13 -9 -29 -23 -36 -32 -15 -19 -17 -75 -3 -101 14 -26
59 -46 95 -43 31 3 74 43 76 70 1 8 2 20 3 27 3 19 -22 65 -43 76 -34 18 -69
19 -92 3z"/>
<path d="M3460 5553 c-57 -22 -70 -106 -24 -153 53 -54 154 -14 154 60 0 74
-62 119 -130 93z"/>
<path d="M2067 4974 c-64 -34 -69 -131 -7 -164 64 -34 140 11 140 83 0 39 -34
86 -62 88 -7 0 -20 2 -29 4 -8 1 -27 -4 -42 -11z"/>
<path d="M4843 4970 c-59 -35 -60 -128 -2 -157 83 -42 169 31 134 115 -23 53
-82 72 -132 42z"/>
<path d="M5044 3967 c-60 -31 -71 -101 -25 -148 48 -47 121 -35 146 26 21 48
19 60 -12 95 -30 32 -77 44 -109 27z"/>
<path d="M1515 3592 c-49 -11 -86 -63 -77 -109 6 -30 46 -70 76 -75 59 -12
117 42 110 102 -6 54 -58 93 -109 82z"/>
<path d="M5402 3567 c-46 -49 -38 -112 18 -146 40 -24 84 -16 115 21 32 38 32
78 -1 117 -21 26 -33 31 -68 31 -31 0 -48 -6 -64 -23z"/>
<path d="M1849 3181 c-46 -46 -34 -116 24 -144 49 -24 107 -4 127 44 40 95
-78 173 -151 100z"/>
<path d="M4848 2192 c-55 -28 -68 -115 -23 -152 48 -40 126 -23 149 31 35 83
-46 161 -126 121z"/>
<path d="M3828 1993 c-48 -30 -52 -100 -9 -144 38 -38 80 -39 121 -1 50 46 45
119 -11 148 -36 18 -68 17 -101 -3z"/>
<path d="M3465 1621 c-33 -14 -56 -47 -57 -80 -3 -89 91 -133 153 -72 37 37
39 88 7 125 -25 28 -72 40 -103 27z"/>
</g>
</svg>
