<?xml version="1.0" encoding="UTF-8"?>
<svg id="t-logo" xmlns="http://www.w3.org/2000/svg" viewBox="0 0 448.14 447.96">
  <defs>
    <style>
      .cls-1 {
        fill: #ecaa30;
      }
    </style>
  </defs>
  <path class="cls-1" d="M0,209.96c1.12-8.2,2-16.45,3.39-24.6C18.66,95.85,87.88,23.92,176.83,5.01c106.07-22.55,211.8,32.61,253.88,132.45,54.82,130.06-25.08,279.87-163.4,306.2-9.14,1.74-18.46,2.49-27.69,3.72-.56,.07-1.08,.38-1.62,.58h-22.75c-.81-.26-1.6-.64-2.42-.76-25.92-3.58-46.48-16.1-61.63-37.34-2-2.81-3.7-3.54-7.07-2.98-29.38,4.9-55.44-2.56-76.84-23.18-34.28-33.03-55.34-73.41-63.76-120.28C2.01,255,1.16,246.45,0,237.96c0-9.33,0-18.67,0-28Zm193.96,65.01c-1.97-1.39-3.28-2.29-4.56-3.22-23.95-17.34-31.44-49.9-17.41-75.69,2.68-4.92,6.01-6.47,9.74-4.52,3.76,1.96,3.94,5.44,2.05,10.56-2.34,6.34-5,12.95-5.36,19.57-1.03,19.06,7.34,33.78,24.15,42.7,16.82,8.92,33.72,7.59,48.95-3.89,15.23-11.48,21.11-27.36,17.23-46.01-6.27-30.22-38.86-45.11-66.57-30.89-4.94,2.53-8.56,1.92-10.57-1.78-2.02-3.72-.51-7.15,4.38-9.78,7.81-4.21,16.15-6.51,25.03-6.98,30.56-1.6,58.04,21.18,61.52,51.08,3.68,31.54-16.61,59.98-47.23,65.63-8.13,1.5-16.57,1.27-24.74,2.59-35.22,5.73-61.86,37.12-62.53,73.32-.66,35.78,24.86,68.07,59.62,75.38,17.03,3.58,34.03,1.7,50.86-1.08,95.61-15.79,168.39-95.21,175.57-192.1,4.48-60.39-14.04-113.46-54.73-158.1C319.69,16.27,227.85-4.34,145.65,28.25,58.82,62.67,4.35,152.49,14.17,245.34c4.82,45.6,22.68,85.49,53.13,119.8,11.99,13.5,25.79,23.97,43.74,28.07,10.14,2.32,20.3,2.98,30.95,.68-9.39-23.8-9.72-47.27,.44-70.44,10.15-23.14,27.52-38.94,51.53-48.48Z"/>
  <path class="cls-1" d="M134.98,128.49c.02,3.63-2.57,6.34-6.18,6.46-3.76,.13-6.72-2.69-6.74-6.39-.01-3.67,3.01-6.63,6.67-6.52,3.55,.1,6.23,2.87,6.24,6.45Z"/>
  <path class="cls-1" d="M325.92,128.32c.11,3.53-2.53,6.41-6.07,6.62-3.81,.22-6.74-2.44-6.85-6.21-.1-3.59,2.48-6.46,6.01-6.68,3.65-.23,6.79,2.62,6.91,6.28Z"/>
  <path class="cls-1" d="M325.92,319.44c-.03,3.68-3.07,6.58-6.74,6.45-3.54-.13-6.19-2.93-6.17-6.52,.02-3.78,2.89-6.52,6.69-6.39,3.55,.12,6.26,2.93,6.23,6.46Z"/>
  <path class="cls-1" d="M250.4,69.18c-3.77,.08-6.64-2.74-6.61-6.5,.03-3.47,2.87-6.4,6.29-6.49,3.58-.1,6.64,2.97,6.6,6.61-.03,3.6-2.7,6.31-6.29,6.38Z"/>
  <path class="cls-1" d="M217.54,88.82c.08-3.46,2.99-6.36,6.41-6.39,3.58-.03,6.58,3.08,6.49,6.72-.09,3.76-3.04,6.47-6.82,6.27-3.55-.19-6.16-3.02-6.07-6.61Z"/>
  <path class="cls-1" d="M332.89,191.26c3.47,.08,6.36,2.98,6.38,6.4,.03,3.58-3.08,6.57-6.73,6.48-3.76-.09-6.46-3.04-6.26-6.83,.19-3.56,3.01-6.15,6.61-6.06Z"/>
  <path class="cls-1" d="M95.46,224.14c-.09,3.59-2.81,6.24-6.41,6.26-3.65,.02-6.71-3.05-6.59-6.62,.11-3.43,3.04-6.25,6.52-6.26,3.77-.02,6.57,2.85,6.48,6.62Z"/>
  <path class="cls-1" d="M358.99,217.52c3.48,.01,6.42,2.82,6.53,6.25,.12,3.57-2.93,6.65-6.58,6.64-3.77-.01-6.54-2.9-6.42-6.68,.11-3.58,2.86-6.21,6.46-6.2Z"/>
  <path class="cls-1" d="M115.33,256.65c-3.65,.03-6.71-3.03-6.61-6.6,.1-3.42,3.03-6.26,6.5-6.29,3.77-.03,6.58,2.83,6.5,6.6-.08,3.59-2.79,6.25-6.39,6.28Z"/>
  <path class="cls-1" d="M256.7,332.77c-.04,3.46-2.9,6.39-6.32,6.47-3.57,.08-6.62-2.99-6.58-6.64,.04-3.76,2.96-6.51,6.75-6.35,3.57,.15,6.19,2.92,6.15,6.52Z"/>
  <path class="cls-1" d="M217.54,359.05c-.06-3.59,2.56-6.4,6.12-6.56,3.79-.17,6.71,2.55,6.78,6.32,.06,3.64-2.97,6.74-6.54,6.67-3.42-.06-6.3-2.98-6.35-6.44Z"/>
</svg>